<svg data-v-d3f97b9e="" xmlns="http://www.w3.org/2000/svg" viewBox="0 0 328 90"><!----><!----><!----><g data-v-d3f97b9e="" id="726b9b6b-54df-4f72-aa9f-bcb7a4e8681b" fill="white" transform="matrix(5.277044465376257,0,0,5.277044465376257,103.18437934847739,-14.445906760518653)"><path d="M0.40 8.09L0.33 5.89L7.40 5.89L7.16 8.16L6.82 8.12L6.70 6.24L4.16 6.24L4.16 13.90L5.37 14.08L5.30 14.40L2.20 14.40L2.24 14.11L3.43 13.90L3.43 6.24L1.00 6.24L0.76 8.15L0.40 8.09ZM11.38 14.40L8.12 14.40L8.16 14.19L9.22 14.01L9.22 9.02L8.16 8.83L8.18 8.63L9.76 8.50L9.83 8.56L9.77 10.34L9.83 10.34L9.83 10.34Q10.06 9.46 10.51 8.91L10.51 8.91L10.51 8.91Q10.95 8.37 11.50 8.37L11.50 8.37L11.50 8.37Q11.83 8.37 12.01 8.51L12.01 8.51L12.01 8.51Q12.20 8.66 12.20 8.89L12.20 8.89L12.20 8.89Q12.20 9.01 12.11 9.15L12.11 9.15L12.11 9.15Q12.02 9.29 11.89 9.38L11.89 9.38L11.89 9.38Q11.71 9.17 11.55 9.09L11.55 9.09L11.55 9.09Q11.39 9.00 11.17 9.00L11.17 9.00L11.17 9.00Q10.90 9.00 10.67 9.22L10.67 9.22L10.67 9.22Q10.45 9.44 10.29 9.82L10.29 9.82L10.29 9.82Q10.14 10.19 10.04 10.61L10.04 10.61L10.04 10.61Q9.94 11.02 9.87 11.50L9.87 11.50L9.87 14.02L11.43 14.15L11.38 14.40ZM13.85 6.24L13.85 6.24L13.85 6.24Q13.85 5.58 14.27 5.58L14.27 5.58L14.27 5.58Q14.71 5.58 14.71 6.24L14.71 6.24L14.71 6.24Q14.71 6.94 14.28 6.94L14.28 6.94L14.28 6.94Q13.85 6.94 13.85 6.24ZM15.64 14.40L12.87 14.40L12.95 14.18L13.98 13.99L13.98 9.01L12.93 8.82L12.95 8.63L14.57 8.50L14.62 8.56L14.62 13.99L15.72 14.17L15.64 14.40ZM19.09 16.95L16.35 16.95L16.39 16.69L17.41 16.54L17.41 9.02L16.37 8.83L16.39 8.63L18.01 8.49L18.06 8.55L18.03 9.54L18.08 9.54L18.08 9.54Q18.41 9.10 18.91 8.76L18.91 8.76L18.91 8.76Q19.41 8.42 20.02 8.42L20.02 8.42L20.02 8.42Q20.95 8.42 21.50 9.13L21.50 9.13L21.50 9.13Q22.05 9.84 22.05 11.28L22.05 11.28L22.05 11.28Q22.05 12.72 21.22 13.63L21.22 13.63L21.22 13.63Q20.39 14.53 19.11 14.53L19.11 14.53L19.11 14.53Q18.71 14.53 18.35 14.46L18.35 14.46L18.32 13.97L18.32 13.97Q18.72 14.12 19.48 14.12L19.48 14.12L19.48 14.12Q20.24 14.12 20.80 13.47L20.80 13.47L20.80 13.47Q21.36 12.82 21.36 11.65L21.36 11.65L21.36 11.65Q21.36 10.40 20.93 9.69L20.93 9.69L20.93 9.69Q20.50 8.98 19.61 8.98L19.61 8.98L19.61 8.98Q19.41 8.98 19.21 9.04L19.21 9.04L19.21 9.04Q19.01 9.11 18.90 9.17L18.90 9.17L18.90 9.17Q18.79 9.23 18.58 9.41L18.58 9.41L18.58 9.41Q18.38 9.59 18.33 9.63L18.33 9.63L18.33 9.63Q18.29 9.67 18.08 9.89L18.08 9.89L18.08 16.55L19.14 16.67L19.09 16.95ZM22.84 8.09L22.77 5.89L29.83 5.89L29.59 8.16L29.25 8.12L29.13 6.24L26.60 6.24L26.60 13.90L27.81 14.08L27.73 14.40L24.64 14.40L24.67 14.11L25.87 13.90L25.87 6.24L23.43 6.24L23.19 8.15L22.84 8.09ZM31.30 11.20L31.30 11.20L31.30 11.20Q31.30 12.44 31.88 13.29L31.88 13.29L31.88 13.29Q32.46 14.14 33.39 14.14L33.39 14.14L33.39 14.14Q34.13 14.14 34.59 13.44L34.59 13.44L34.59 13.44Q35.05 12.74 35.05 11.66L35.05 11.66L35.05 11.66Q35.05 10.94 34.81 10.30L34.81 10.30L34.81 10.30Q34.57 9.67 34.10 9.25L34.10 9.25L34.10 9.25Q33.63 8.84 33.02 8.84L33.02 8.84L33.02 8.84Q32.26 8.84 31.78 9.51L31.78 9.51L31.78 9.51Q31.30 10.19 31.30 11.20ZM30.58 11.69L30.58 11.69L30.58 11.69Q30.58 10.18 31.36 9.28L31.36 9.28L31.36 9.28Q32.14 8.39 33.33 8.39L33.33 8.39L33.33 8.39Q34.05 8.39 34.61 8.81L34.61 8.81L34.61 8.81Q35.18 9.23 35.47 9.92L35.47 9.92L35.47 9.92Q35.77 10.60 35.77 11.41L35.77 11.41L35.77 11.41Q35.77 12.81 35.00 13.70L35.00 13.70L35.00 13.70Q34.23 14.58 33.15 14.58L33.15 14.58L33.15 14.58Q32.04 14.58 31.31 13.79L31.31 13.79L31.31 13.79Q30.58 13.00 30.58 11.69ZM39.57 12.84L38.45 11.49L38.45 11.38L40.58 9.03L39.67 8.80L39.70 8.57L42.17 8.57L42.12 8.80L41.10 9.02L39.09 11.26L39.92 12.19L39.92 12.19Q40.07 12.37 40.37 12.71L40.37 12.71L40.37 12.71Q40.66 13.05 40.76 13.15L40.76 13.15L40.76 13.15Q40.85 13.25 41.05 13.46L41.05 13.46L41.05 13.46Q41.25 13.67 41.34 13.73L41.34 13.73L41.34 13.73Q41.43 13.79 41.60 13.89L41.60 13.89L41.60 13.89Q41.76 13.99 41.90 14.03L41.90 14.03L41.90 14.03Q42.05 14.06 42.23 14.08L42.23 14.08L42.50 14.11L42.45 14.40L42.45 14.40Q42.11 14.53 41.74 14.53L41.74 14.53L41.74 14.53Q41.23 14.53 40.85 14.23L40.85 14.23L40.85 14.23Q40.48 13.93 39.57 12.84L39.57 12.84ZM39.25 14.40L36.46 14.40L36.52 14.18L37.58 13.99L37.58 6.23L36.53 6.04L36.53 5.84L38.16 5.71L38.21 5.77L38.21 13.99L39.29 14.17L39.25 14.40Z"></path></g><!----><g data-v-d3f97b9e="" id="162df1c8-6026-48f3-b6f7-4c69f472c4bb" transform="matrix(1.2672842546016145,0,0,1.2672842546016145,-20.870949376829437,-17.87321618033399)" stroke="none" fill="white"><path d="M50 14.491c-1.269 0-2.454.559-3.469 1.482-.987.922-1.833 2.208-2.539 3.747-1.41 3.076-2.256 7.242-2.256 11.855v12.274l-6.797 3.271c-.338-1.146-.762-2.125-1.297-2.908-.706-1.007-1.692-1.762-2.821-1.762-.761 0-1.495.364-2.059.895-.593.531-1.044 1.23-1.411 2.069-.733 1.594-1.185 3.663-1.241 5.956l-7.305 3.551c-.762.392-1.297 1.091-1.692 1.901s-.621 1.789-.621 2.74V63.7c0 .419.367.811.79.811h24.454v11.911l-13.539 4.054c-1.128.336-1.89 1.314-1.89 2.433v1.817c0 .42.395.783.818.783h45.749c.422 0 .816-.363.816-.783v-1.817c0-1.146-.76-2.097-1.889-2.433l-13.539-4.054V64.511h24.455c.422 0 .789-.392.789-.811v-4.138c0-.951-.227-1.93-.621-2.74s-.902-1.51-1.664-1.901l-7.332-3.551c-.057-2.293-.508-4.362-1.242-5.956-.367-.839-.846-1.538-1.41-2.069s-1.297-.895-2.059-.895c-1.129 0-2.115.755-2.82 1.762-.537.783-.988 1.761-1.297 2.908l-6.799-3.299V31.575c0-4.613-.846-8.779-2.256-11.855-.705-1.538-1.551-2.824-2.539-3.747-1.014-.923-2.197-1.482-3.467-1.482zm0 1.566c.79 0 1.58.335 2.369 1.063.789.727 1.551 1.873 2.172 3.271 1.297 2.796 2.115 6.766 2.115 11.184v45.407a.81.81 0 0 0 .564.755l14.131 4.249c.338.084.732.644.732.923v1.035H27.916v-1.035c0-.308.395-.839.705-.923l14.13-4.249a.808.808 0 0 0 .592-.755V31.575c0-4.418.818-8.388 2.115-11.184.621-1.398 1.382-2.544 2.172-3.271.791-.727 1.58-1.063 2.37-1.063zM30.821 44.044c.451 0 .959.28 1.495 1.035.451.643.79 1.706 1.072 2.796l-1.438.699-.113.056-1.975.951-.451.224-1.58.755c.141-1.734.423-3.355.959-4.502.311-.699.705-1.23 1.072-1.566.338-.336.649-.448.959-.448zm38.359 0c.311 0 .621.112.959.447.367.336.762.867 1.072 1.566.535 1.118.816 2.74.959 4.474l-2.031-.951-2.145-1.035-1.381-.671c.281-1.09.619-2.153 1.072-2.796.536-.754 1.044-1.034 1.495-1.034zm-10.916 1.51l6.996 3.411 4.879 2.376 2.594 1.259 7.758 3.774c.281.111.705.531.986 1.118.283.615.451 1.37.451 2.069v3.354H58.264V45.554zm-16.528.029v17.334H18.072v-3.354c0-.699.197-1.454.479-2.069.282-.587.677-1.007.959-1.118l7.644-3.747.113-.027 2.595-1.259 1.975-.979 2.877-1.398.169-.084 6.853-3.299z"></path></g><!----></svg>