<svg data-v-d3f97b9e="" xmlns="http://www.w3.org/2000/svg" viewBox="0 0 56.617197752756844 60"><!----><!----><!----><!----><g data-v-d3f97b9e="" id="703a58b5-7133-420a-94c3-437af085fb82" transform="matrix(0.8448561697344097,0,0,0.8448561697344097,-13.933364622598205,-12.242811857547693)" stroke="none" fill="white"><path d="M50 14.491c-1.269 0-2.454.559-3.469 1.482-.987.922-1.833 2.208-2.539 3.747-1.41 3.076-2.256 7.242-2.256 11.855v12.274l-6.797 3.271c-.338-1.146-.762-2.125-1.297-2.908-.706-1.007-1.692-1.762-2.821-1.762-.761 0-1.495.364-2.059.895-.593.531-1.044 1.23-1.411 2.069-.733 1.594-1.185 3.663-1.241 5.956l-7.305 3.551c-.762.392-1.297 1.091-1.692 1.901s-.621 1.789-.621 2.74V63.7c0 .419.367.811.79.811h24.454v11.911l-13.539 4.054c-1.128.336-1.89 1.314-1.89 2.433v1.817c0 .42.395.783.818.783h45.749c.422 0 .816-.363.816-.783v-1.817c0-1.146-.76-2.097-1.889-2.433l-13.539-4.054V64.511h24.455c.422 0 .789-.392.789-.811v-4.138c0-.951-.227-1.93-.621-2.74s-.902-1.51-1.664-1.901l-7.332-3.551c-.057-2.293-.508-4.362-1.242-5.956-.367-.839-.846-1.538-1.41-2.069s-1.297-.895-2.059-.895c-1.129 0-2.115.755-2.82 1.762-.537.783-.988 1.761-1.297 2.908l-6.799-3.299V31.575c0-4.613-.846-8.779-2.256-11.855-.705-1.538-1.551-2.824-2.539-3.747-1.014-.923-2.197-1.482-3.467-1.482zm0 1.566c.79 0 1.58.335 2.369 1.063.789.727 1.551 1.873 2.172 3.271 1.297 2.796 2.115 6.766 2.115 11.184v45.407a.81.81 0 0 0 .564.755l14.131 4.249c.338.084.732.644.732.923v1.035H27.916v-1.035c0-.308.395-.839.705-.923l14.13-4.249a.808.808 0 0 0 .592-.755V31.575c0-4.418.818-8.388 2.115-11.184.621-1.398 1.382-2.544 2.172-3.271.791-.727 1.58-1.063 2.37-1.063zM30.821 44.044c.451 0 .959.28 1.495 1.035.451.643.79 1.706 1.072 2.796l-1.438.699-.113.056-1.975.951-.451.224-1.58.755c.141-1.734.423-3.355.959-4.502.311-.699.705-1.23 1.072-1.566.338-.336.649-.448.959-.448zm38.359 0c.311 0 .621.112.959.447.367.336.762.867 1.072 1.566.535 1.118.816 2.74.959 4.474l-2.031-.951-2.145-1.035-1.381-.671c.281-1.09.619-2.153 1.072-2.796.536-.754 1.044-1.034 1.495-1.034zm-10.916 1.51l6.996 3.411 4.879 2.376 2.594 1.259 7.758 3.774c.281.111.705.531.986 1.118.283.615.451 1.37.451 2.069v3.354H58.264V45.554zm-16.528.029v17.334H18.072v-3.354c0-.699.197-1.454.479-2.069.282-.587.677-1.007.959-1.118l7.644-3.747.113-.027 2.595-1.259 1.975-.979 2.877-1.398.169-.084 6.853-3.299z"></path></g><!----></svg>